<mxfile host="65bd71144e">
    <diagram id="58SO3tEJWvLtK6XkHxIX" name="Page-1">
        <mxGraphModel dx="1315" dy="1118" grid="1" gridSize="10" guides="1" tooltips="1" connect="1" arrows="1" fold="1" page="1" pageScale="1" pageWidth="850" pageHeight="1100" math="0" shadow="0">
            <root>
                <mxCell id="0"/>
                <mxCell id="1" parent="0"/>
                <mxCell id="498" value="&lt;meta charset=&quot;utf-8&quot;&gt;&lt;table style=&quot;table-layout:fixed;font-size:10pt;font-family:Arial;width:0px;border-collapse:collapse;border:none&quot; border=&quot;1&quot; dir=&quot;ltr&quot; cellpadding=&quot;0&quot; cellspacing=&quot;0&quot; xmlns=&quot;http://www.w3.org/1999/xhtml&quot;&gt;&lt;colgroup&gt;&lt;col width=&quot;200&quot;&gt;&lt;col width=&quot;200&quot;&gt;&lt;col width=&quot;200&quot;&gt;&lt;/colgroup&gt;&lt;tbody&gt;&lt;tr style=&quot;height:21px;&quot;&gt;&lt;td data-sheets-value=&quot;{&amp;quot;1&amp;quot;:2,&amp;quot;2&amp;quot;:&amp;quot;00: -&amp;quot;}&quot; style=&quot;overflow:hidden;padding:2px 3px 2px 3px;vertical-align:bottom;background-color:#ffffff;font-weight:bold;&quot;&gt;00: -&lt;/td&gt;&lt;td data-sheets-value=&quot;{&amp;quot;1&amp;quot;:2,&amp;quot;2&amp;quot;:&amp;quot;0f: Store 64-bit&amp;quot;}&quot; style=&quot;overflow:hidden;padding:2px 3px 2px 3px;vertical-align:bottom;background-color:#00ff00;font-weight:bold;&quot;&gt;0f: Store 64-bit&lt;/td&gt;&lt;td data-sheets-value=&quot;{&amp;quot;1&amp;quot;:2,&amp;quot;2&amp;quot;:&amp;quot;1e: Jump (Cond)&amp;quot;}&quot; style=&quot;overflow:hidden;padding:2px 3px 2px 3px;vertical-align:bottom;background-color:#00ff00;font-weight:bold;&quot;&gt;1e: Jump (Cond)&lt;/td&gt;&lt;/tr&gt;&lt;tr style=&quot;height:21px;&quot;&gt;&lt;td data-sheets-value=&quot;{&amp;quot;1&amp;quot;:2,&amp;quot;2&amp;quot;:&amp;quot;01: Wait For Idle&amp;quot;}&quot; style=&quot;overflow:hidden;padding:2px 3px 2px 3px;vertical-align:bottom;background-color:#ffffff;font-weight:bold;&quot;&gt;01: Wait For Idle&lt;/td&gt;&lt;td data-sheets-value=&quot;{&amp;quot;1&amp;quot;:2,&amp;quot;2&amp;quot;:&amp;quot;10: Load 32-bit&amp;quot;}&quot; style=&quot;overflow:hidden;padding:2px 3px 2px 3px;vertical-align:bottom;background-color:#00ff00;font-weight:bold;&quot;&gt;10: Load 32-bit&lt;/td&gt;&lt;td data-sheets-value=&quot;{&amp;quot;1&amp;quot;:2,&amp;quot;2&amp;quot;:&amp;quot;1f: ?&amp;quot;}&quot; style=&quot;overflow:hidden;padding:2px 3px 2px 3px;vertical-align:bottom;background-color:#ffffff;font-weight:bold;&quot;&gt;1f: ?&lt;/td&gt;&lt;/tr&gt;&lt;tr style=&quot;height:21px;&quot;&gt;&lt;td data-sheets-value=&quot;{&amp;quot;1&amp;quot;:2,&amp;quot;2&amp;quot;:&amp;quot;02: Wait 2&amp;quot;}&quot; style=&quot;overflow:hidden;padding:2px 3px 2px 3px;vertical-align:bottom;background-color:#ffffff;font-weight:bold;&quot;&gt;02: Wait 2&lt;/td&gt;&lt;td data-sheets-value=&quot;{&amp;quot;1&amp;quot;:2,&amp;quot;2&amp;quot;:&amp;quot;11: Load 64-bit&amp;quot;}&quot; style=&quot;overflow:hidden;padding:2px 3px 2px 3px;vertical-align:bottom;background-color:#00ff00;font-weight:bold;&quot;&gt;11: Load 64-bit&lt;/td&gt;&lt;td data-sheets-value=&quot;{&amp;quot;1&amp;quot;:2,&amp;quot;2&amp;quot;:&amp;quot;20: ?&amp;quot;}&quot; style=&quot;overflow:hidden;padding:2px 3px 2px 3px;vertical-align:bottom;background-color:#ffffff;font-weight:bold;&quot;&gt;20: ?&lt;/td&gt;&lt;/tr&gt;&lt;tr style=&quot;height:21px;&quot;&gt;&lt;td data-sheets-value=&quot;{&amp;quot;1&amp;quot;:2,&amp;quot;2&amp;quot;:&amp;quot;03: Doorbell&amp;quot;}&quot; style=&quot;overflow:hidden;padding:2px 3px 2px 3px;vertical-align:bottom;background-color:#ffffff;font-weight:bold;&quot;&gt;03: Doorbell&lt;/td&gt;&lt;td data-sheets-value=&quot;{&amp;quot;1&amp;quot;:2,&amp;quot;2&amp;quot;:&amp;quot;12: ?&amp;quot;}&quot; style=&quot;overflow:hidden;padding:2px 3px 2px 3px;vertical-align:bottom;background-color:#ffffff;font-weight:bold;&quot;&gt;12: ?&lt;/td&gt;&lt;td data-sheets-value=&quot;{&amp;quot;1&amp;quot;:2,&amp;quot;2&amp;quot;:&amp;quot;21: ?&amp;quot;}&quot; style=&quot;overflow:hidden;padding:2px 3px 2px 3px;vertical-align:bottom;background-color:#ffffff;font-weight:bold;&quot;&gt;21: ?&lt;/td&gt;&lt;/tr&gt;&lt;tr style=&quot;height:21px;&quot;&gt;&lt;td data-sheets-value=&quot;{&amp;quot;1&amp;quot;:2,&amp;quot;2&amp;quot;:&amp;quot;04: Write 8-bit reg&amp;quot;}&quot; style=&quot;overflow:hidden;padding:2px 3px 2px 3px;vertical-align:bottom;background-color:#ffffff;font-weight:bold;&quot;&gt;04: Write 8-bit reg&lt;/td&gt;&lt;td data-sheets-value=&quot;{&amp;quot;1&amp;quot;:2,&amp;quot;2&amp;quot;:&amp;quot;13: ?&amp;quot;}&quot; style=&quot;overflow:hidden;padding:2px 3px 2px 3px;vertical-align:bottom;background-color:#ffffff;font-weight:bold;&quot;&gt;13: ?&lt;/td&gt;&lt;td data-sheets-value=&quot;{&amp;quot;1&amp;quot;:2,&amp;quot;2&amp;quot;:&amp;quot;22: Start Vertex&amp;quot;}&quot; style=&quot;overflow:hidden;padding:2px 3px 2px 3px;vertical-align:bottom;background-color:#ffffff;font-weight:bold;&quot;&gt;22: Start Vertex&lt;/td&gt;&lt;/tr&gt;&lt;tr style=&quot;height:21px;&quot;&gt;&lt;td data-sheets-value=&quot;{&amp;quot;1&amp;quot;:2,&amp;quot;2&amp;quot;:&amp;quot;05: Write 32-bit reg&amp;quot;}&quot; style=&quot;overflow:hidden;padding:2px 3px 2px 3px;vertical-align:bottom;background-color:#ffffff;font-weight:bold;&quot;&gt;05: Write 32-bit reg&lt;/td&gt;&lt;td data-sheets-value=&quot;{&amp;quot;1&amp;quot;:2,&amp;quot;2&amp;quot;:&amp;quot;14: ?&amp;quot;}&quot; style=&quot;overflow:hidden;padding:2px 3px 2px 3px;vertical-align:bottom;background-color:#ffffff;font-weight:bold;&quot;&gt;14: ?&lt;/td&gt;&lt;td data-sheets-value=&quot;{&amp;quot;1&amp;quot;:2,&amp;quot;2&amp;quot;:&amp;quot;23: Finish Vertex&amp;quot;}&quot; style=&quot;overflow:hidden;padding:2px 3px 2px 3px;vertical-align:bottom;background-color:#ffffff;font-weight:bold;&quot;&gt;23: Finish Vertex&lt;/td&gt;&lt;/tr&gt;&lt;tr style=&quot;height:21px;&quot;&gt;&lt;td data-sheets-value=&quot;{&amp;quot;1&amp;quot;:2,&amp;quot;2&amp;quot;:&amp;quot;06: Write 64-bit reg&amp;quot;}&quot; style=&quot;overflow:hidden;padding:2px 3px 2px 3px;vertical-align:bottom;background-color:#ffffff;font-weight:bold;&quot;&gt;06: Write 64-bit reg&lt;/td&gt;&lt;td data-sheets-value=&quot;{&amp;quot;1&amp;quot;:2,&amp;quot;2&amp;quot;:&amp;quot;15: Test (If)&amp;quot;}&quot; style=&quot;overflow:hidden;padding:2px 3px 2px 3px;vertical-align:bottom;background-color:#00ff00;font-weight:bold;&quot;&gt;15: Test (If)&lt;/td&gt;&lt;td data-sheets-value=&quot;{&amp;quot;1&amp;quot;:2,&amp;quot;2&amp;quot;:&amp;quot;24: Start Fragment&amp;quot;}&quot; style=&quot;overflow:hidden;padding:2px 3px 2px 3px;vertical-align:bottom;background-color:#ffffff;font-weight:bold;&quot;&gt;24: Start Fragment&lt;/td&gt;&lt;/tr&gt;&lt;tr style=&quot;height:21px;&quot;&gt;&lt;td data-sheets-value=&quot;{&amp;quot;1&amp;quot;:2,&amp;quot;2&amp;quot;:&amp;quot;07: -&amp;quot;}&quot; style=&quot;overflow:hidden;padding:2px 3px 2px 3px;vertical-align:bottom;background-color:#ffffff;font-weight:bold;&quot;&gt;07: -&lt;/td&gt;&lt;td data-sheets-value=&quot;{&amp;quot;1&amp;quot;:2,&amp;quot;2&amp;quot;:&amp;quot;16: Logic op&amp;quot;}&quot; style=&quot;overflow:hidden;padding:2px 3px 2px 3px;vertical-align:bottom;background-color:#00ff00;font-weight:bold;&quot;&gt;16: Logic op&lt;/td&gt;&lt;td data-sheets-value=&quot;{&amp;quot;1&amp;quot;:2,&amp;quot;2&amp;quot;:&amp;quot;25: Finish Fragment&amp;quot;}&quot; style=&quot;overflow:hidden;padding:2px 3px 2px 3px;vertical-align:bottom;background-color:#ffffff;font-weight:bold;&quot;&gt;25: Finish Fragment&lt;/td&gt;&lt;/tr&gt;&lt;tr style=&quot;height:21px;&quot;&gt;&lt;td data-sheets-value=&quot;{&amp;quot;1&amp;quot;:2,&amp;quot;2&amp;quot;:&amp;quot;08: Read 8-bit reg&amp;quot;}&quot; style=&quot;overflow:hidden;padding:2px 3px 2px 3px;vertical-align:bottom;background-color:#ffffff;font-weight:bold;&quot;&gt;08: Read 8-bit reg&lt;/td&gt;&lt;td data-sheets-value=&quot;{&amp;quot;1&amp;quot;:2,&amp;quot;2&amp;quot;:&amp;quot;17: Add 16-bit&amp;quot;}&quot; style=&quot;overflow:hidden;padding:2px 3px 2px 3px;vertical-align:bottom;background-color:#00ff00;font-weight:bold;&quot;&gt;17: Add 16-bit&lt;/td&gt;&lt;td data-sheets-value=&quot;{&amp;quot;1&amp;quot;:2,&amp;quot;2&amp;quot;:&amp;quot;26: Start Blit&amp;quot;}&quot; style=&quot;overflow:hidden;padding:2px 3px 2px 3px;vertical-align:bottom;background-color:#ffffff;font-weight:bold;&quot;&gt;26: Start Blit&lt;/td&gt;&lt;/tr&gt;&lt;tr style=&quot;height:21px;&quot;&gt;&lt;td data-sheets-value=&quot;{&amp;quot;1&amp;quot;:2,&amp;quot;2&amp;quot;:&amp;quot;09: Read 32-bit reg&amp;quot;}&quot; style=&quot;overflow:hidden;padding:2px 3px 2px 3px;vertical-align:bottom;background-color:#ffffff;font-weight:bold;&quot;&gt;09: Read 32-bit reg&lt;/td&gt;&lt;td data-sheets-value=&quot;{&amp;quot;1&amp;quot;:2,&amp;quot;2&amp;quot;:&amp;quot;18: Retire&amp;quot;}&quot; style=&quot;overflow:hidden;padding:2px 3px 2px 3px;vertical-align:bottom;background-color:#ffffff;font-weight:bold;&quot;&gt;18: Retire&lt;/td&gt;&lt;td data-sheets-value=&quot;{&amp;quot;1&amp;quot;:2,&amp;quot;2&amp;quot;:&amp;quot;27: Finish Blit&amp;quot;}&quot; style=&quot;overflow:hidden;padding:2px 3px 2px 3px;vertical-align:bottom;background-color:#ffffff;font-weight:bold;&quot;&gt;27: Finish Blit&lt;/td&gt;&lt;/tr&gt;&lt;tr style=&quot;height:21px;&quot;&gt;&lt;td data-sheets-value=&quot;{&amp;quot;1&amp;quot;:2,&amp;quot;2&amp;quot;:&amp;quot;0a: Read 64-bit reg&amp;quot;}&quot; style=&quot;overflow:hidden;padding:2px 3px 2px 3px;vertical-align:bottom;background-color:#ffffff;font-weight:bold;&quot;&gt;0a: Read 64-bit reg&lt;/td&gt;&lt;td data-sheets-value=&quot;{&amp;quot;1&amp;quot;:2,&amp;quot;2&amp;quot;:&amp;quot;19: Timestamp&amp;quot;}&quot; style=&quot;overflow:hidden;padding:2px 3px 2px 3px;vertical-align:bottom;background-color:#ffffff;font-weight:bold;&quot;&gt;19: Timestamp&lt;/td&gt;&lt;td data-sheets-value=&quot;{&amp;quot;1&amp;quot;:2,&amp;quot;2&amp;quot;:&amp;quot;28: ?&amp;quot;}&quot; style=&quot;overflow:hidden;padding:2px 3px 2px 3px;vertical-align:bottom;background-color:#ffffff;font-weight:bold;&quot;&gt;28: ?&lt;/td&gt;&lt;/tr&gt;&lt;tr style=&quot;height:21px;&quot;&gt;&lt;td data-sheets-value=&quot;{&amp;quot;1&amp;quot;:2,&amp;quot;2&amp;quot;:&amp;quot;0b: Wait 32-bit reg&amp;quot;}&quot; style=&quot;overflow:hidden;padding:2px 3px 2px 3px;vertical-align:bottom;background-color:#ffffff;font-weight:bold;&quot;&gt;0b: Wait 32-bit reg&lt;/td&gt;&lt;td data-sheets-value=&quot;{&amp;quot;1&amp;quot;:2,&amp;quot;2&amp;quot;:&amp;quot;1a: KTrace&amp;quot;}&quot; style=&quot;overflow:hidden;padding:2px 3px 2px 3px;vertical-align:bottom;background-color:#ffffff;font-weight:bold;&quot;&gt;1a: KTrace&lt;/td&gt;&lt;td data-sheets-value=&quot;{&amp;quot;1&amp;quot;:2,&amp;quot;2&amp;quot;:&amp;quot;29: Start Compute&amp;quot;}&quot; style=&quot;overflow:hidden;padding:2px 3px 2px 3px;vertical-align:bottom;background-color:#ffffff;font-weight:bold;&quot;&gt;29: Start Compute&lt;/td&gt;&lt;/tr&gt;&lt;tr style=&quot;height:21px;&quot;&gt;&lt;td data-sheets-value=&quot;{&amp;quot;1&amp;quot;:2,&amp;quot;2&amp;quot;:&amp;quot;0c: Wait 64-bit reg&amp;quot;}&quot; style=&quot;overflow:hidden;padding:2px 3px 2px 3px;vertical-align:bottom;background-color:#ffffff;font-weight:bold;&quot;&gt;0c: Wait 64-bit reg&lt;/td&gt;&lt;td data-sheets-value=&quot;{&amp;quot;1&amp;quot;:2,&amp;quot;2&amp;quot;:&amp;quot;1b: ?&amp;quot;}&quot; style=&quot;overflow:hidden;padding:2px 3px 2px 3px;vertical-align:bottom;background-color:#ffffff;font-weight:bold;&quot;&gt;1b: ?&lt;/td&gt;&lt;td data-sheets-value=&quot;{&amp;quot;1&amp;quot;:2,&amp;quot;2&amp;quot;:&amp;quot;2a: Finish Compute&amp;quot;}&quot; style=&quot;overflow:hidden;padding:2px 3px 2px 3px;vertical-align:bottom;background-color:#ffffff;font-weight:bold;&quot;&gt;2a: Finish Compute&lt;/td&gt;&lt;/tr&gt;&lt;tr style=&quot;height:21px;&quot;&gt;&lt;td data-sheets-value=&quot;{&amp;quot;1&amp;quot;:2,&amp;quot;2&amp;quot;:&amp;quot;0d: -&amp;quot;}&quot; style=&quot;overflow:hidden;padding:2px 3px 2px 3px;vertical-align:bottom;background-color:#ffffff;font-weight:bold;&quot;&gt;0d: -&lt;/td&gt;&lt;td data-sheets-value=&quot;{&amp;quot;1&amp;quot;:2,&amp;quot;2&amp;quot;:&amp;quot;1c: ?&amp;quot;}&quot; style=&quot;overflow:hidden;padding:2px 3px 2px 3px;vertical-align:bottom;background-color:#ffffff;font-weight:bold;&quot;&gt;1c: ?&lt;/td&gt;&lt;td data-sheets-value=&quot;{&amp;quot;1&amp;quot;:2,&amp;quot;2&amp;quot;:&amp;quot;2b: ?&amp;quot;}&quot; style=&quot;overflow:hidden;padding:2px 3px 2px 3px;vertical-align:bottom;background-color:#ffffff;font-weight:bold;&quot;&gt;2b: ?&lt;/td&gt;&lt;/tr&gt;&lt;tr style=&quot;height:21px;&quot;&gt;&lt;td data-sheets-value=&quot;{&amp;quot;1&amp;quot;:2,&amp;quot;2&amp;quot;:&amp;quot;0e: Store 32-bit&amp;quot;}&quot; style=&quot;overflow:hidden;padding:2px 3px 2px 3px;vertical-align:bottom;background-color:#00ff00;font-weight:bold;&quot;&gt;0e: Store 32-bit&lt;/td&gt;&lt;td data-sheets-value=&quot;{&amp;quot;1&amp;quot;:2,&amp;quot;2&amp;quot;:&amp;quot;1d: ?&amp;quot;}&quot; style=&quot;overflow:hidden;padding:2px 3px 2px 3px;vertical-align:bottom;background-color:#ffffff;font-weight:bold;&quot;&gt;1d: ?&lt;/td&gt;&lt;td data-sheets-value=&quot;{&amp;quot;1&amp;quot;:2,&amp;quot;2&amp;quot;:&amp;quot;2c: ?&amp;quot;}&quot; style=&quot;overflow:hidden;padding:2px 3px 2px 3px;vertical-align:bottom;background-color:#ffffff;font-weight:bold;&quot;&gt;2c: ?&lt;/td&gt;&lt;/tr&gt;&lt;/tbody&gt;&lt;/table&gt;" style="text;whiteSpace=wrap;html=1;" vertex="1" parent="1">
                    <mxGeometry x="100" y="360" width="560" height="340" as="geometry"/>
                </mxCell>
            </root>
        </mxGraphModel>
    </diagram>
</mxfile>